<?xml version="1.0" encoding="UTF-8"?>
<svg id="uuid-b4933ecf-fb94-4cc8-ae12-e71c747ccef2" data-name="Layer 2" xmlns="http://www.w3.org/2000/svg" viewBox="0 0 1608.55 1608.55">
  <g id="uuid-ff47ea31-cd14-406d-b9a9-9152aed65628" data-name="muse_icon">
    <rect width="1608.55" height="1608.55" rx="320.44" ry="320.44" style="fill: #2271b1; stroke-width: 0px;"/>
    <g>
      <circle cx="948.97" cy="648.34" r="86.67" transform="translate(-180.5 860.91) rotate(-45)" style="fill: #fff; stroke-width: 0px;"/>
      <path d="m1311.69,1103.26l-164.75-285.36c-23.93-41.45-76.94-55.66-118.39-31.72h0c-41.45,23.93-55.66,76.94-31.72,118.39l108.4,187.76c8.17,14.15-2.04,31.84-18.38,31.84h-565.14c-16.34,0-26.55-17.69-18.38-31.84l376.01-651.27c23.93-41.45,9.73-94.46-31.72-118.39h0c-41.45-23.93-94.46-9.73-118.39,31.72l-432.36,748.86c-49.84,86.33,12.46,194.25,112.15,194.25h790.53c99.69,0,161.99-107.91,112.15-194.25Z" style="fill: #fff; stroke-width: 0px;"/>
    </g>
  </g>
</svg>